<svg xmlns="http://www.w3.org/2000/svg" width="69.333" height="72.667" viewBox="0 0 69.333 72.667">
  <g id="Group_22454" data-name="Group 22454" transform="translate(3 3)">
    <g id="Home" transform="translate(0 0)">
      <path id="Home-2" data-name="Home" d="M22.116,62.578V52.385a4.728,4.728,0,0,1,4.746-4.711h9.581a4.763,4.763,0,0,1,3.356,1.38,4.694,4.694,0,0,1,1.39,3.331V62.578a4.044,4.044,0,0,0,1.187,2.889,4.1,4.1,0,0,0,2.9,1.2h6.536a11.534,11.534,0,0,0,8.144-3.331,11.365,11.365,0,0,0,3.376-8.077V26.223a8.243,8.243,0,0,0-2.985-6.341L38.113,2.253a10.325,10.325,0,0,0-13.162.237L3.223,19.882A8.247,8.247,0,0,0,0,26.223V55.23A11.479,11.479,0,0,0,11.521,66.667h6.387a4.1,4.1,0,0,0,4.119-4.059Z" transform="translate(0 0)" fill="none" stroke="#892516" stroke-width="6"/>
    </g>
  </g>
</svg>
