<svg xmlns="http://www.w3.org/2000/svg" width="58.401" height="71.666" viewBox="0 0 58.401 71.666">
  <g id="Group_22451" data-name="Group 22451" transform="translate(2.5 2.5)">
    <g id="Profile" transform="translate(0)">
      <path id="Profile-2" data-name="Profile" d="M22.149,66.666a21.364,21.364,0,0,0-2.682-.177,53.6,53.6,0,0,1-7.788-.978C6.114,64.443,2.481,62.544.924,59.58a8.2,8.2,0,0,1-.03-7.5c1.53-2.967,5.163-4.893,10.785-5.931a57.183,57.183,0,0,1,7.815-.981,89.708,89.708,0,0,1,14.421,0,58.615,58.615,0,0,1,7.785.981c5.565,1.125,9.2,2.964,10.755,5.931a8.2,8.2,0,0,1,0,7.383c-1.557,2.967-5.046,4.923-10.812,5.931A55.814,55.814,0,0,1,33.855,66.4a66.368,66.368,0,0,1-7.3.267ZM9.171,18a17.756,17.756,0,0,1,17.5-18,17.758,17.758,0,0,1,17.5,18,17.761,17.761,0,0,1-17.5,18A17.759,17.759,0,0,1,9.171,18Z" fill="none" stroke="#c3c2c1" stroke-width="5"/>
    </g>
  </g>
</svg>
